<svg width="21" height="18" viewBox="0 0 21 18" fill="none" xmlns="http://www.w3.org/2000/svg">
<path d="M7.54517 16.9997C7.96643 16.9999 8.37874 16.8781 8.73232 16.6491C9.08589 16.4201 9.3656 16.0936 9.53767 15.7091C9.70974 15.3246 9.76682 14.8984 9.702 14.4822C9.63718 14.0659 9.45325 13.6774 9.1724 13.3634H19.354C19.6349 13.6774 19.8188 14.0659 19.8836 14.4822C19.9484 14.8984 19.8913 15.3246 19.7193 15.7091C19.5472 16.0936 19.2675 16.4201 18.9139 16.6491C18.5603 16.8781 18.148 16.9999 17.7268 16.9997H7.54517Z" fill="#FFB342"/>
<path d="M17.7268 13.3634V3.18179C17.728 2.89494 17.6724 2.61069 17.5632 2.34544C17.4539 2.08019 17.2933 1.8392 17.0904 1.63636C16.8876 1.43353 16.6466 1.27287 16.3814 1.16365C16.1161 1.05443 15.8319 0.998816 15.545 1.00002H3.18164" stroke="white" stroke-linecap="round" stroke-linejoin="round"/>
<path d="M8.99976 6.81812H14.8178" stroke="white" stroke-linecap="round" stroke-linejoin="round"/>
<path d="M8.99976 9.72711H14.8178" stroke="white" stroke-linecap="round" stroke-linejoin="round"/>
<path d="M1.55453 4.6364C1.31903 4.37272 1.15113 4.05576 1.06529 3.71279C0.979447 3.36983 0.978237 3.01114 1.06176 2.66761C1.14529 2.32407 1.31104 2.00598 1.54477 1.74072C1.77849 1.47545 2.07317 1.27095 2.40345 1.14483C2.73373 1.01871 3.08972 0.974741 3.44076 1.01671C3.7918 1.05868 4.12739 1.18532 4.41863 1.38575C4.70987 1.58617 4.94805 1.85437 5.11265 2.16726C5.27725 2.48015 5.36336 2.82835 5.36354 3.18189V14.818C5.36373 15.1716 5.44984 15.5198 5.61444 15.8326C5.77904 16.1455 6.01722 16.4137 6.30846 16.6142C6.5997 16.8146 6.93529 16.9412 7.28633 16.9832C7.63737 17.0252 7.99336 16.9812 8.32364 16.8551C8.65392 16.7289 8.9486 16.5245 9.18232 16.2592C9.41605 15.9939 9.5818 15.6758 9.66533 15.3323C9.74885 14.9888 9.74764 14.6301 9.6618 14.2871C9.57596 13.9441 9.40806 13.6272 9.17256 13.3635H19.3542C19.635 13.6775 19.8189 14.0661 19.8838 14.4823C19.9486 14.8986 19.8915 15.3247 19.7194 15.7092C19.5474 16.0937 19.2676 16.4202 18.9141 16.6492C18.5605 16.8782 18.1482 17 17.7269 16.9998H7.54532" stroke="white" stroke-linecap="round" stroke-linejoin="round"/>
</svg>
