<svg width="18" height="18" viewBox="0 0 18 18" fill="none" xmlns="http://www.w3.org/2000/svg">
<path d="M9.00018 11.1818C10.2052 11.1818 11.182 10.205 11.182 8.99999C11.182 7.79501 10.2052 6.81818 9.00018 6.81818C7.79519 6.81818 6.81836 7.79501 6.81836 8.99999C6.81836 10.205 7.79519 11.1818 9.00018 11.1818Z" fill="#FFB342"/>
<path d="M9.00004 15.5455C12.615 15.5455 15.5455 12.615 15.5455 9.00004C15.5455 5.38509 12.615 2.45459 9.00004 2.45459C5.38509 2.45459 2.45459 5.38509 2.45459 9.00004C2.45459 12.615 5.38509 15.5455 9.00004 15.5455Z" stroke="white" stroke-linecap="round" stroke-linejoin="round"/>
<path d="M9 1V3.90909" stroke="white" stroke-linecap="round" stroke-linejoin="round"/>
<path d="M1 9H3.90909" stroke="white" stroke-linecap="round" stroke-linejoin="round"/>
<path d="M9 17V14.0909" stroke="white" stroke-linecap="round" stroke-linejoin="round"/>
<path d="M17.0002 9H14.0911" stroke="white" stroke-linecap="round" stroke-linejoin="round"/>
<path d="M9.00018 11.1818C10.2052 11.1818 11.182 10.205 11.182 8.99999C11.182 7.79501 10.2052 6.81818 9.00018 6.81818C7.79519 6.81818 6.81836 7.79501 6.81836 8.99999C6.81836 10.205 7.79519 11.1818 9.00018 11.1818Z" stroke="white" stroke-linecap="round" stroke-linejoin="round"/>
</svg>
