<svg width="45" height="51" viewBox="0 0 45 51" fill="none" xmlns="http://www.w3.org/2000/svg">
<path d="M41.32 19.0692H2.92C2.41078 19.0692 1.92242 19.2714 1.56236 19.6315C1.20229 19.9916 1 20.4799 1 20.9892V47.8691C1 48.3784 1.20229 48.8667 1.56236 49.2268C1.92242 49.5869 2.41078 49.7891 2.92 49.7891H41.32C41.8292 49.7891 42.3176 49.5869 42.6776 49.2268C43.0377 48.8667 43.24 48.3784 43.24 47.8691V20.9892C43.24 20.4799 43.0377 19.9916 42.6776 19.6315C42.3176 19.2714 41.8292 19.0692 41.32 19.0692ZM22.12 36.3491C21.1706 36.3491 20.2426 36.0676 19.4533 35.5402C18.6639 35.0128 18.0487 34.2631 17.6854 33.386C17.3221 32.5089 17.227 31.5438 17.4122 30.6127C17.5974 29.6816 18.0546 28.8263 18.7259 28.155C19.3972 27.4837 20.2525 27.0266 21.1836 26.8414C22.1147 26.6562 23.0798 26.7512 23.9569 27.1145C24.834 27.4778 25.5836 28.0931 26.111 28.8824C26.6385 29.6718 26.92 30.5998 26.92 31.5491C26.92 32.8222 26.4143 34.0431 25.5141 34.9433C24.6139 35.8434 23.393 36.3491 22.12 36.3491Z" fill="#0064DC"/>
<path d="M22.1201 36.3491C24.771 36.3491 26.9201 34.2001 26.9201 31.5491C26.9201 28.8982 24.771 26.7491 22.1201 26.7491C19.4691 26.7491 17.3201 28.8982 17.3201 31.5491C17.3201 34.2001 19.4691 36.3491 22.1201 36.3491Z" stroke="#2E383F" stroke-width="2" stroke-linecap="round" stroke-linejoin="round"/>
<path d="M22.1201 36.3491V42.1091" stroke="#2E383F" stroke-width="2" stroke-linecap="round" stroke-linejoin="round"/>
<path d="M41.32 19.0692H2.92C1.85961 19.0692 1 19.9288 1 20.9892V47.8691C1 48.9295 1.85961 49.7891 2.92 49.7891H41.32C42.3804 49.7891 43.24 48.9295 43.24 47.8691V20.9892C43.24 19.9288 42.3804 19.0692 41.32 19.0692Z" stroke="#2E383F" stroke-width="2" stroke-linecap="round" stroke-linejoin="round"/>
<path d="M13.4797 19.0692V10.4292C13.4797 8.13768 14.39 5.94006 16.0103 4.31975C17.6306 2.69944 19.8283 1.78915 22.1197 1.78915C24.4112 1.78915 26.6088 2.69944 28.2291 4.31975C29.8494 5.94006 30.7597 8.13768 30.7597 10.4292V19.0692" stroke="#2E383F" stroke-width="2" stroke-linecap="round" stroke-linejoin="round"/>
</svg>
