<svg width="54" height="51" viewBox="0 0 54 51" fill="none" xmlns="http://www.w3.org/2000/svg">
<path d="M35.9751 13.8142C36.6608 15.7313 37.0077 17.7531 37.0001 19.7892C37.0001 24.5631 35.1037 29.1414 31.7281 32.5171C28.3524 35.8927 23.774 37.7892 19.0001 37.7892H18.0251C19.2662 41.2993 21.5651 44.3383 24.6052 46.4874C27.6453 48.6365 31.2771 49.7901 35.0001 49.7892H51.5001C51.898 49.7892 52.2795 49.6311 52.5608 49.3498C52.8421 49.0685 53.0001 48.687 53.0001 48.2892V31.7892C53.0066 27.182 51.2437 22.7483 48.0756 19.4034C44.9074 16.0584 40.5758 14.0577 35.9751 13.8142Z" fill="#0064DC"/>
<path d="M19 37.7891H2.5C2.10217 37.7891 1.72064 37.6311 1.43934 37.3498C1.15804 37.0685 1 36.687 1 36.2891V19.7891C1 15.0153 2.89642 10.4369 6.27208 7.06123C9.64773 3.68558 14.2261 1.78915 19 1.78915V1.78915C23.7739 1.78915 28.3523 3.68558 31.7279 7.06123C35.1036 10.4369 37 15.0153 37 19.7891V19.7891C37 24.563 35.1036 29.1414 31.7279 32.5171C28.3523 35.8927 23.7739 37.7891 19 37.7891V37.7891Z" stroke="black" stroke-width="2" stroke-linecap="round" stroke-linejoin="round"/>
<path d="M18.0251 37.7892C19.2662 41.2993 21.5651 44.3383 24.6052 46.4874C27.6453 48.6365 31.2771 49.7901 35.0001 49.7892H51.5001C51.898 49.7892 52.2795 49.6311 52.5608 49.3498C52.8421 49.0685 53.0001 48.687 53.0001 48.2892V31.7892C53.0066 27.182 51.2437 22.7483 48.0756 19.4034C44.9074 16.0584 40.5758 14.0577 35.9751 13.8142" stroke="black" stroke-width="2" stroke-linecap="round" stroke-linejoin="round"/>
</svg>
