<svg width="50" height="51" viewBox="0 0 50 51" fill="none" xmlns="http://www.w3.org/2000/svg">
<path opacity="0.2" d="M18.3533 37.8203C15.4105 46.5712 3.74268 46.5712 3.74268 46.5712C3.74268 46.5712 3.74268 34.9034 12.4935 31.9606L18.3533 37.8203Z" fill="#002B60"/>
<path d="M39.7827 22.7002V39.3759C39.775 39.9206 39.5523 40.4402 39.1632 40.8215L30.8253 49.1851C30.5608 49.4493 30.2295 49.6368 29.8668 49.7275C29.5041 49.8182 29.1236 49.8087 28.7658 49.7C28.4081 49.5914 28.0865 49.3876 27.8355 49.1106C27.5845 48.8335 27.4134 48.4935 27.3405 48.1268L25.1721 37.3108L39.7827 22.7002Z" fill="#0064DC"/>
<path opacity="0.2" d="M28.0889 11.0066H11.4132C10.8685 11.0144 10.349 11.237 9.96767 11.6261L1.60401 19.964C1.33979 20.2285 1.15234 20.5598 1.06166 20.9225C0.970981 21.2852 0.980471 21.6657 1.08912 22.0235C1.19777 22.3812 1.4015 22.7028 1.67857 22.9538C1.95565 23.2048 2.29568 23.3759 2.66238 23.4488L13.4783 25.6172L28.0889 11.0066Z" fill="#002B60"/>
<path d="M18.3533 37.8203C15.4105 46.5712 3.74268 46.5712 3.74268 46.5712C3.74268 46.5712 3.74268 34.9034 12.4935 31.9606" fill="#0064DC"/>
<path d="M18.3533 37.8203C15.4105 46.5712 3.74268 46.5712 3.74268 46.5712C3.74268 46.5712 3.74268 34.9034 12.4935 31.9606" stroke="#2E383F" stroke-width="2" stroke-linecap="round" stroke-linejoin="round"/>
<path d="M42.6994 19.7833L25.1719 37.3108L13.4783 25.6172L31.0058 8.08962C37.64 1.45549 44.2741 1.53293 47.1136 1.94595C47.5518 2.00441 47.9585 2.20543 48.2711 2.518C48.5836 2.83057 48.7847 3.23731 48.8431 3.67547C49.2561 6.51498 49.3336 13.1491 42.6994 19.7833Z" stroke="#2E383F" stroke-width="2" stroke-linecap="round" stroke-linejoin="round"/>
<path d="M39.7827 22.7002V39.3759C39.775 39.9206 39.5523 40.4402 39.1632 40.8215L30.8253 49.1851C30.5608 49.4493 30.2295 49.6368 29.8668 49.7275C29.5041 49.8182 29.1236 49.8087 28.7658 49.7C28.4081 49.5914 28.0865 49.3876 27.8355 49.1106C27.5845 48.8335 27.4134 48.4935 27.3405 48.1268L25.1721 37.3108" stroke="#2E383F" stroke-width="2" stroke-linecap="round" stroke-linejoin="round"/>
<path d="M28.0889 11.0066H11.4132C10.8685 11.0144 10.349 11.237 9.96767 11.6261L1.60401 19.964C1.33979 20.2285 1.15234 20.5598 1.06166 20.9225C0.970981 21.2852 0.980471 21.6657 1.08912 22.0235C1.19777 22.3812 1.4015 22.7028 1.67857 22.9538C1.95565 23.2048 2.29568 23.3759 2.66238 23.4488L13.4783 25.6172" fill="#0064DC"/>
<path d="M28.0889 11.0066H11.4132C10.8685 11.0144 10.349 11.237 9.96767 11.6261L1.60401 19.964C1.33979 20.2285 1.15234 20.5598 1.06166 20.9225C0.970981 21.2852 0.980471 21.6657 1.08912 22.0235C1.19777 22.3812 1.4015 22.7028 1.67857 22.9538C1.95565 23.2048 2.29568 23.3759 2.66238 23.4488L13.4783 25.6172" stroke="#2E383F" stroke-width="2" stroke-linecap="round" stroke-linejoin="round"/>
</svg>
