<svg width="64" height="56" viewBox="0 0 64 56" fill="none" xmlns="http://www.w3.org/2000/svg">
<path d="M8.13477 21.8935V35.806C8.13659 36.2389 8.27975 36.6594 8.54246 37.0036C10.2497 39.2968 17.4862 47.6545 31.5771 47.6545C45.6679 47.6545 52.9045 39.2968 54.6117 37.0036C54.8744 36.6594 55.0175 36.2389 55.0194 35.806V21.8935L31.5771 34.4045L8.13477 21.8935Z" fill="#0064DC"/>
<path d="M1 18.0968L31.5769 1.78915L62.1538 18.0968L31.5769 34.4045L1 18.0968Z" stroke="#2E383F" stroke-width="2" stroke-linecap="round" stroke-linejoin="round"/>
<path d="M46.8656 54.7892V26.2507L31.5771 18.0969" stroke="#2E383F" stroke-width="2" stroke-linecap="round" stroke-linejoin="round"/>
<path d="M55.0194 21.8935V35.806C55.0175 36.2389 54.8744 36.6594 54.6117 37.0036C52.9045 39.2968 45.6679 47.6545 31.5771 47.6545C17.4862 47.6545 10.2497 39.2968 8.54246 37.0036C8.27975 36.6594 8.13659 36.2389 8.13477 35.806V21.8935" stroke="#2E383F" stroke-width="2" stroke-linecap="round" stroke-linejoin="round"/>
</svg>
