<svg width="65" height="51" viewBox="0 0 65 51" fill="none" xmlns="http://www.w3.org/2000/svg">
<path d="M33.6978 49.0147C33.4885 49.2598 33.228 49.4562 32.9347 49.59C32.6413 49.7238 32.3223 49.7917 31.9999 49.7891C31.6775 49.7864 31.3596 49.7132 31.0686 49.5746C30.7775 49.436 30.5203 49.2353 30.3151 48.9867L10.3262 25.4194C16.3845 20.2759 24.0732 17.4522 32.0204 17.4522C39.9676 17.4522 47.6564 20.2759 53.7146 25.4194L33.6978 49.0147Z" fill="#FFB342"/>
<path d="M1.8831 11.8325C19.6355 -1.55864 44.4049 -1.55864 62.1573 11.8325C62.4003 12.0176 62.6028 12.2506 62.7523 12.517C62.9018 12.7834 62.9951 13.0776 63.0266 13.3814C63.058 13.6853 63.0268 13.9924 62.935 14.2837C62.8432 14.5751 62.6927 14.8445 62.4928 15.0755L33.6976 49.0146C33.4882 49.2598 33.2278 49.4562 32.9345 49.59C32.6411 49.7238 32.3221 49.7917 31.9997 49.7891C31.6773 49.7864 31.3594 49.7132 31.0684 49.5746C30.7773 49.436 30.5201 49.2353 30.3148 48.9867L1.54762 15.1034C1.34698 14.8701 1.19599 14.5984 1.10386 14.3048C1.01174 14.0112 0.980422 13.7019 1.01182 13.3958C1.04321 13.0897 1.13666 12.7932 1.28647 12.5244C1.43627 12.2557 1.63928 12.0202 1.8831 11.8325V11.8325Z" stroke="white" stroke-width="2" stroke-linecap="round" stroke-linejoin="round"/>
<path d="M10.3262 25.4194C16.3845 20.2759 24.0732 17.4522 32.0204 17.4522C39.9676 17.4522 47.6564 20.2759 53.7146 25.4194" stroke="white" stroke-width="2" stroke-linecap="round" stroke-linejoin="round"/>
</svg>
