<svg width="23" height="22" viewBox="0 0 23 22" fill="none" xmlns="http://www.w3.org/2000/svg">
<path d="M8.4733 2.40809C8.12425 1.55765 7.2791 1 6.33926 1H3.17746C1.97488 1 1 1.95014 1 3.12215C1 13.0842 9.28675 21.16 19.5087 21.16C20.7113 21.16 21.6859 20.21 21.6859 19.038L21.6858 15.9565C21.6858 15.0406 21.1135 14.217 20.2409 13.8768L17.2122 12.696C16.4283 12.3905 15.5359 12.5282 14.8874 13.0549L14.1046 13.6904C13.1914 14.4321 11.8486 14.3728 11.008 13.5536L8.80475 11.4065C7.96417 10.5873 7.9036 9.27854 8.66463 8.38853L9.31668 7.6259C9.85713 6.99384 9.9984 6.12393 9.68486 5.36002L8.4733 2.40809Z" stroke="white" stroke-width="1.5" stroke-linecap="round" stroke-linejoin="round"/>
</svg>
