<svg width="18" height="18" viewBox="0 0 18 18" fill="none" xmlns="http://www.w3.org/2000/svg">
<path d="M8.92845 12.9898C11.133 12.9898 12.9201 11.2027 12.9201 8.99815C12.9201 6.7936 11.133 5.00647 8.92845 5.00647C6.7239 5.00647 4.93677 6.7936 4.93677 8.99815C4.93677 11.2027 6.7239 12.9898 8.92845 12.9898Z" fill="#FFB342"/>
<path d="M8.92847 8.99819L16.9118 1.01483" stroke="white" stroke-linecap="round" stroke-linejoin="round"/>
<path d="M14.575 3.35164C13.1597 1.93206 11.263 1.09556 9.26034 1.00769C7.25768 0.91983 5.29502 1.58701 3.7608 2.87718C2.22659 4.16735 1.23264 5.98648 0.975688 7.97452C0.718732 9.96257 1.2175 11.9746 2.37326 13.6125C3.52903 15.2503 5.25756 16.3946 7.21675 16.8188C9.17593 17.243 11.223 16.9162 12.9527 15.9032C14.6825 14.8901 15.9688 13.2645 16.5573 11.3483C17.1457 9.43198 16.9932 7.36462 16.1301 5.55538" stroke="white" stroke-linecap="round" stroke-linejoin="round"/>
<path d="M11.7475 6.17905C11.0882 5.52163 10.2195 5.11591 9.2922 5.03237C8.36492 4.94883 7.43766 5.19274 6.67151 5.72174C5.90535 6.25074 5.3487 7.03141 5.09825 7.92813C4.84779 8.82485 4.91936 9.78098 5.30053 10.6304C5.68169 11.4799 6.34835 12.169 7.18473 12.578C8.0211 12.987 8.97433 13.0902 9.87885 12.8695C10.7834 12.6489 11.582 12.1183 12.1361 11.3701C12.6901 10.6219 12.9646 9.70318 12.9117 8.77364" stroke="white" stroke-linecap="round" stroke-linejoin="round"/>
</svg>
