<svg width="70" height="70" viewBox="0 0 70 70" fill="none" xmlns="http://www.w3.org/2000/svg">
<circle cx="35" cy="35" r="35" fill="white" fill-opacity="0.39"/>
<path fill-rule="evenodd" clip-rule="evenodd" d="M8 35.0371C8 20.1049 20.1049 8 35.0371 8C49.9693 8 62.0743 20.1049 62.0743 35.0371C62.0743 49.9693 49.9693 62.0743 35.0371 62.0743C20.1049 62.0743 8 49.9693 8 35.0371ZM35.0371 6C19.0004 6 6 19.0004 6 35.0371C6 51.0739 19.0004 64.0743 35.0371 64.0743C51.0739 64.0743 64.0743 51.0739 64.0743 35.0371C64.0743 19.0004 51.0739 6 35.0371 6ZM30.919 24.8593C30.6122 24.6547 30.2176 24.6356 29.8925 24.8096C29.5673 24.9837 29.3643 25.3225 29.3643 25.6913V44.3828C29.3643 44.7515 29.5673 45.0904 29.8925 45.2644C30.2176 45.4384 30.6122 45.4194 30.919 45.2148L44.9376 35.8691C45.2158 35.6836 45.3829 35.3714 45.3829 35.037C45.3829 34.7027 45.2158 34.3904 44.9376 34.205L30.919 24.8593ZM42.5801 35.037L31.3643 42.5142V27.5598L42.5801 35.037Z" fill="white"/>
</svg>
