<svg width="22" height="18" viewBox="0 0 22 18" fill="none" xmlns="http://www.w3.org/2000/svg">
<rect x="1.08813" y="4" width="16" height="3" rx="1" fill="#FFB342"/>
<path d="M16.2 4.55554H1.8C1.35817 4.55554 1 4.90376 1 5.33332V16.2222C1 16.6518 1.35817 17 1.8 17H16.2C16.6418 17 17 16.6518 17 16.2222V5.33332C17 4.90376 16.6418 4.55554 16.2 4.55554Z" stroke="white" stroke-linecap="round" stroke-linejoin="round"/>
<path d="M4.55542 4.11111V1.77778C4.55542 1.5715 4.63971 1.37367 4.78973 1.22781C4.93976 1.08194 5.14325 1 5.35542 1H19.7554C19.9676 1 20.1711 1.08194 20.3211 1.22781C20.4711 1.37367 20.5554 1.5715 20.5554 1.77778V12.6667C20.5554 12.8729 20.4711 13.0708 20.3211 13.2166C20.1711 13.3625 19.9676 13.4444 19.7554 13.4444H17.3554" stroke="white" stroke-linecap="round" stroke-linejoin="round"/>
<path d="M1 7.22217H17" stroke="white" stroke-linecap="round" stroke-linejoin="round"/>
</svg>
