<svg width="23" height="22" viewBox="0 0 23 22" fill="none" xmlns="http://www.w3.org/2000/svg">
<path d="M5.69892 15.532C5.99555 15.2429 6.47039 15.249 6.75949 15.5456C7.04859 15.8423 7.04247 16.3171 6.74583 16.6062L5.69892 15.532ZM1.52212 21.6971C1.22548 21.9862 0.750645 21.9801 0.461546 21.6835C0.172447 21.3868 0.178562 20.912 0.475201 20.6229L1.52212 21.6971ZM12.665 17.8306C17.2505 17.8306 20.9346 14.2127 20.9346 9.7903H22.4346C22.4346 15.0774 18.0422 19.3306 12.665 19.3306V17.8306ZM20.9346 9.7903C20.9346 5.36786 17.2505 1.75 12.665 1.75V0.25C18.0422 0.25 22.4346 4.50325 22.4346 9.7903H20.9346ZM12.665 1.75C8.07945 1.75 4.39534 5.36786 4.39534 9.7903H2.89534C2.89534 4.50325 7.28767 0.25 12.665 0.25V1.75ZM4.39534 9.7903C4.39534 14.2127 8.07945 17.8306 12.665 17.8306V19.3306C7.28767 19.3306 2.89534 15.0774 2.89534 9.7903H4.39534ZM6.74583 16.6062L1.52212 21.6971L0.475201 20.6229L5.69892 15.532L6.74583 16.6062Z" fill="white"/>
</svg>
